<?xml version="1.0" encoding="UTF-8"?>
<!DOCTYPE svg PUBLIC "-//W3C//DTD SVG 1.1//EN" "http://www.w3.org/Graphics/SVG/1.1/DTD/svg11.dtd">
<!-- Creator: CorelDRAW X7 -->
<svg xmlns="http://www.w3.org/2000/svg" xml:space="preserve" width="48.9306mm" height="43.767mm" version="1.1" style="shape-rendering:geometricPrecision; text-rendering:geometricPrecision; image-rendering:optimizeQuality; fill-rule:evenodd; clip-rule:evenodd"
viewBox="0 0 4893 4377"
 xmlns:xlink="http://www.w3.org/1999/xlink">
 <defs>
  <style type="text/css">
   <![CDATA[
    .fil1 {fill:#00ADA9}
    .fil0 {fill:#2B4972}
   ]]>
  </style>
 </defs>
 <g id="Layer_x0020_1">
  <metadata id="CorelCorpID_0Corel-Layer"/>
  <path class="fil0" d="M472 3029c-52,0 -96,5 -131,15 -35,9 -65,24 -89,44 -38,32 -67,71 -86,116 -20,44 -29,94 -29,148 0,58 9,109 28,153 19,43 48,80 86,110 27,21 57,37 90,45 33,9 79,14 136,14l210 0 0 -309 -280 0c-5,0 -10,1 -14,3 -5,1 -9,4 -14,8l-24 21 -8 -5 81 -148 389 0 0 504c0,5 1,9 2,13 2,4 4,7 7,10l15 15 0 9 -364 0c-84,0 -149,-7 -195,-21 -46,-15 -90,-39 -131,-72 -49,-41 -87,-90 -113,-147 -25,-57 -38,-121 -38,-191 0,-55 7,-106 22,-154 15,-47 37,-91 66,-131 20,-28 43,-53 70,-75 26,-22 54,-41 86,-56 27,-14 57,-24 88,-30 32,-6 78,-9 140,-9l333 0 -83 152 -7 0 1 -11 0 -2c0,-6 -2,-10 -6,-13 -5,-4 -10,-6 -16,-6l-222 0zm610 766l-189 0 559 -916 555 916 -191 0 0 -9c8,0 15,-1 20,-4 4,-4 7,-8 7,-14 0,-3 -1,-7 -2,-10 -1,-3 -2,-5 -3,-7l-188 -309 -272 0c-13,0 -21,0 -26,0 -4,1 -7,3 -8,5l-19 15 -6 -5 79 -137 177 0 -123 -202 -392 632c-1,3 -3,6 -4,9 0,3 -1,6 -1,9 0,6 3,10 7,14 5,3 12,4 20,4l0 9zm1635 -47l0 -385 -418 0c-6,0 -10,0 -14,2 -3,1 -8,4 -13,9l-25 20 -7 -3 79 -150 398 0 0 -286c0,-4 -1,-8 -2,-11 -2,-4 -4,-7 -7,-10l-17 -16 0 -9 180 0 0 9 -16 16c-3,2 -5,5 -6,8 -1,4 -2,8 -2,13l0 793c0,6 1,10 2,14 1,3 3,6 6,9l16 15 0 9 -180 0 0 -9 17 -15c3,-3 5,-7 7,-10 1,-4 2,-8 2,-13zm-620 0l0 -793c0,-4 -1,-9 -2,-11 -1,-4 -4,-7 -7,-10l-17 -16 0 -9 180 0 0 9 -16 16c-3,3 -6,6 -7,10 -2,3 -2,7 -2,11l0 793c0,5 0,9 2,13 1,3 4,7 7,10l16 15 0 9 -180 0 0 -9 17 -15c3,-3 5,-7 7,-10 1,-4 2,-8 2,-13zm1027 47l-189 0 559 -916 555 916 -191 0 0 -9c8,0 15,-1 20,-4 4,-4 7,-8 7,-14 0,-3 -1,-7 -2,-10 -1,-3 -2,-5 -3,-7l-188 -309 -272 0c-13,0 -21,0 -26,0 -4,1 -7,3 -8,5l-18 15 -7 -5 80 -137 176 0 -123 -202 -392 632c-1,3 -3,6 -4,9 0,3 -1,6 -1,9 0,6 3,10 7,14 5,3 12,4 20,4l0 9zm1627 -270l0 -570c0,-5 -1,-9 -2,-11 -1,-4 -4,-7 -7,-10l-16 -16 0 -9 167 0 0 9 -16 16c-3,3 -5,6 -6,10 -2,3 -2,7 -2,11l0 869 -622 -634 0 558c0,5 1,9 3,13 1,3 3,7 6,10l16 15 0 9 -168 0 0 -9 17 -15c3,-3 5,-7 7,-10 1,-4 2,-8 2,-13l0 -869 621 646z"/>
  <path class="fil1" d="M770 4373l-172 0 0 -378 172 0c44,0 77,10 97,31 21,20 31,53 31,98l0 120c0,46 -10,79 -31,99 -20,20 -53,30 -97,30zm-113 -51l107 0c26,0 45,-6 57,-18 12,-12 18,-32 18,-60l0 -119c0,-29 -6,-49 -18,-61 -12,-12 -31,-18 -57,-18l-107 0 0 276zm599 51l-248 0 0 -378 245 0 0 51 -186 0 0 107 175 0 0 50 -175 0 0 120 189 0 0 50zm252 -66l119 -312 60 0 -143 378 -72 0 -143 -378 60 0 119 312zm515 66l-248 0 0 -378 245 0 0 51 -186 0 0 107 175 0 0 50 -175 0 0 120 189 0 0 50zm105 -378l59 0 0 327 185 0 0 51 -244 0 0 -378zm506 382l-64 0c-44,0 -77,-10 -97,-31 -21,-20 -31,-52 -31,-98l0 -127c0,-46 10,-79 31,-99 20,-20 53,-30 97,-30l64 0c45,0 77,10 98,30 21,20 31,53 31,99l0 127c0,46 -10,78 -31,98 -21,21 -53,31 -98,31zm-58 -51l53 0c26,0 45,-6 57,-18 12,-12 18,-32 18,-60l0 -127c0,-29 -6,-49 -18,-61 -12,-11 -31,-17 -57,-17l-53 0c-26,0 -45,6 -57,17 -12,12 -18,32 -18,61l0 127c0,28 6,48 18,60 12,12 31,18 57,18zm357 -123l109 0c21,0 36,-4 45,-14 10,-9 15,-24 15,-44l0 -41c0,-20 -5,-35 -15,-44 -9,-10 -24,-14 -45,-14l-109 0 0 157zm112 50l-112 0 0 120 -59 0 0 -378 171 0c40,0 69,9 88,26 18,17 28,44 28,82l0 42c0,38 -10,66 -28,83 -19,17 -48,25 -88,25zm473 120l-248 0 0 -378 245 0 0 51 -186 0 0 107 175 0 0 50 -175 0 0 120 189 0 0 50zm164 -133l0 133 -59 0 0 -378 169 0c41,0 70,9 90,27 19,18 28,47 28,86l0 23c0,56 -22,90 -65,102l78 140 -64 0 -72 -133 -105 0zm0 -50l109 0c21,0 36,-5 46,-14 9,-9 14,-24 14,-45l0 -27c0,-20 -5,-35 -14,-44 -10,-10 -25,-14 -46,-14l-109 0 0 144zm443 -45l82 18c31,6 54,17 67,33 14,15 21,37 21,66l0 22c0,62 -38,93 -112,93l-48 0c-43,0 -77,-3 -102,-7l0 -44 144 0c39,0 58,-16 58,-47l0 -17c0,-14 -4,-25 -12,-33 -9,-8 -23,-14 -42,-18l-77 -16c-32,-6 -54,-17 -68,-32 -14,-15 -21,-35 -21,-62l0 -18c0,-61 38,-91 112,-91l42 0c42,0 76,2 102,7l0 44 -132 0c-43,0 -64,15 -64,45l0 9c0,14 4,24 11,31 8,8 21,13 39,17z"/>
  <path class="fil0" d="M2328 0l0 299c-438,73 -772,454 -772,913 0,372 219,693 535,841l0 -1058 237 -99 0 1230 0 299c-602,-76 -1067,-590 -1067,-1213 0,-622 465,-1136 1067,-1212zm-98 1789l59 0 0 80 -59 0 0 -80zm-100 0l59 0 0 80 -59 0 0 -80zm100 -145l59 0 0 81 -59 0 0 -81zm-100 0l59 0 0 81 -59 0 0 -81zm100 -144l59 0 0 80 -59 0 0 -80zm-100 0l59 0 0 80 -59 0 0 -80zm100 -144l59 0 0 80 -59 0 0 -80zm-100 0l59 0 0 80 -59 0 0 -80zm100 -144l59 0 0 80 -59 0 0 -80zm-100 0l59 0 0 80 -59 0 0 -80zm100 -145l59 0 0 81 -59 0 0 -81zm-100 0l59 0 0 81 -59 0 0 -81z"/>
  <path class="fil1" d="M2565 2425l0 -299c438,-73 772,-454 772,-914 0,-371 -219,-692 -535,-840l0 1058 -237 97 0 -1228 0 -299c602,76 1067,590 1067,1212 0,623 -465,1137 -1067,1213zm38 -1067l60 0 0 -81 -60 0 0 81zm101 0l59 0 0 -81 -59 0 0 81zm-101 -145l60 0 0 -80 -60 0 0 80zm101 0l59 0 0 -80 -59 0 0 80zm-101 -144l60 0 0 -80 -60 0 0 80zm101 0l59 0 0 -80 -59 0 0 80zm-101 -144l60 0 0 -80 -60 0 0 80zm101 0l59 0 0 -80 -59 0 0 80zm-101 -144l60 0 0 -81 -60 0 0 81zm101 0l59 0 0 -81 -59 0 0 81zm-101 -145l60 0 0 -80 -60 0 0 80zm101 0l59 0 0 -80 -59 0 0 80z"/>
 </g>
</svg>
